<svg width="31" height="36" viewBox="0 0 31 36" fill="none" xmlns="http://www.w3.org/2000/svg">
<g id="layout-11">
<path id="Path" d="M12.0138 20.7H0.750865C0.336388 20.7 0 20.3433 0 19.9038V0.796154C0 0.356677 0.336388 0 0.750865 0H12.0138C12.4283 0 12.7647 0.356677 12.7647 0.796154V19.9038C12.7647 20.3433 12.4283 20.7 12.0138 20.7Z" fill="#5454D4"/>
<path id="Path_2" d="M12.0138 36H0.750865C0.336388 36 0 35.6256 0 35.1643V25.1358C0 24.6744 0.336388 24.3 0.750865 24.3H12.0138C12.4283 24.3 12.7647 24.6744 12.7647 25.1358V35.1643C12.7647 35.6256 12.4283 36 12.0138 36Z" fill="#D8D7E6"/>
<path id="Path_3" d="M30.2492 11.7H18.9862C18.5717 11.7 18.2354 11.3256 18.2354 10.8643V0.835714C18.2354 0.3744 18.5717 0 18.9862 0H30.2492C30.6637 0 31.0001 0.3744 31.0001 0.835714V10.8643C31.0001 11.3256 30.6637 11.7 30.2492 11.7Z" fill="#D8D7E6"/>
<path id="Path_4" d="M30.2492 36H18.9862C18.5717 36 18.2354 35.6434 18.2354 35.2039V16.0962C18.2354 15.6567 18.5717 15.3 18.9862 15.3H30.2492C30.6637 15.3 31.0001 15.6567 31.0001 16.0962V35.2039C31.0001 35.6434 30.6637 36 30.2492 36Z" fill="#5454D4"/>
</g>
</svg>
